<svg version="1.1"
     width="100" height="100"
     xmlns="http://www.w3.org/2000/svg">
  <!-- Background Color -->
  <rect width="100%" height="100%" fill="#171717" />
  <!--
    Gear
    Teeth Center Points:
                  Teeth Surface Equations:
    (50 ,8)       y=8
    (86.37307,29) y=1.73205x-120.60247589350001
    (86.37307,71) y=-1.73205x+220.6024758935
    (50, 92)      y=92
    (13.62693,71) y=1.73205x+47.3974758935
    (13.62693,29) y=-1.73205x+52.6025241065

    5*cos(30 deg)=4.3301270189
    86.37307-4.3301270189 = 82.04294
    13.62693+4.3301270189 = 17.95706
  -->
  <path fill="white"
        d="M 55,8
           A 20 20 0 0 0 82.04294,21.5
           L 86.37307,34
           A 20 20 0 0 0 86.37307,66
           L 82.04294,78.5
           A 20 20 0 0 0 55,92
           H 45
           A 20 20 0 0 0 17.95706,78.5
           L 13.62693,66
           A 20 20 0 0 0 13.62693,34
           L 17.95706,21.5
           A 20 20 0 0 0 45,8
           Z
           M 50,32
           A 18 18 0 0 0 50,68
           A 18 18 0 0 0 50,32
           M 50,35
           A 15 15 0 0 0 50,65
           A 15 15 0 0 0 50,35
        "
  />
</svg>
