<svg version="1.1"
     width="100" height="100"
     xmlns="http://www.w3.org/2000/svg">
  <!-- Trash Can Lid Handle -->
  <path fill="none" stroke="white" stroke-width="5"
        d="M 35 16
           V 15
           A 10 10 0 0 1 45 5
           H 55
           A 10 10 0 0 1 65 15
           V 16"
  />
  <!-- Trash Can Lid Base -->
  <path fill="white"
        d="M 5 25
           V 20
           A 5 5 0 0 1 10 15
           H 90
           A 5 5 0 0 1 95 20
           V 25
           Z"
  />
  <!-- Trash Can Body -->
  <path fill="white" fill-rule="evenodd"
        d="M 10 30
           H 90
           L 83 92
           A 3 3 0 0 1 80 95
           H 20
           A 3 3 0 0 1 17 92
           Z
           M 47 40
           A 3 3 0 1 1 53 40
           V 85
           A 3 3 0 1 1 47 85
           Z
           M 26 40
           A 3 3 0 1 1 32 40
           L 37 85
           A 3 3 0 1 1 31 85
           Z
           M 74 40
           A 3 3 0 1 0 68 40
           L 63 85
           A 3 3 0 1 0 69 85
           Z"
  />
</svg>