<svg version="1.1"
     width="100" height="100"
     xmlns="http://www.w3.org/2000/svg">
  <!-- Background Color -->
  <rect width="100%" height="100%" fill="#171717" />
  <!-- Saucer Body -->
  <ellipse fill="#BA1717" stroke="black" stroke-width="2px"
           cx="50" cy="50"
           rx="20" ry="50"
           transform="rotate(50 50 50)"
  />
  <!-- Saucer Saucer Fin Fill -->
  <path fill="#BA1717"
        d="
          M 26,58
          Q 8,60 3,65
          A 13 13 0 0 0 12,70
          Z
        "
  />
  <!-- Saucer Saucer Fin Border -->
  <path fill="none" stroke="black" stroke-width="2px" stroke-linecap="round" stroke-linejoin="round"
        d="
          M 26,58
          Q 8,60 3,65
          A 13 13 0 0 0 12,70
        "
  />
  <!-- Saucer Windshield -->
  <path fill="white" stroke="black" stroke-width="2px" stroke-linejoin="round"
        d="
          M 30,55
          A 19.52562 19.52562 0 0 1 60,30
          A 50 50 0 0 1 30,55
          Z
        "
  />
  <!-- Saucer Lower Headlight -->
  <ellipse fill="none" stroke="black" stroke-width="2px"
           cx="64" cy="45"
           rx="4" ry="7"
           transform="rotate(100 64 45)"
  />
  <!-- Saucer Upper Headlight -->
  <ellipse fill="none" stroke="black" stroke-width="2px"
           cx="72" cy="24"
           rx="4" ry="7"
           transform="rotate(75 72 24)"
  />
</svg>
